<mxfile host="Electron" modified="2024-04-26T03:40:39.007Z" agent="Mozilla/5.0 (X11; Linux x86_64) AppleWebKit/537.36 (KHTML, like Gecko) draw.io/24.2.5 Chrome/120.0.6099.109 Electron/28.1.0 Safari/537.36" etag="yp_e3ZhiWiMxGuPEXsgR" version="24.2.5" type="device">
  <diagram name="Page-1" id="BiH42gk8LcioDMxBzIxK">
    <mxGraphModel dx="1434" dy="835" grid="1" gridSize="10" guides="1" tooltips="1" connect="1" arrows="1" fold="1" page="1" pageScale="1" pageWidth="850" pageHeight="1100" math="0" shadow="0">
      <root>
        <mxCell id="0" />
        <mxCell id="1" parent="0" />
        <mxCell id="6_L2TqiYfCNutB5mRZmD-2" value="1" style="rounded=0;whiteSpace=wrap;html=1;strokeColor=#6c8ebf;strokeWidth=1;fontFamily=Ubuntu;fontSize=16;fillColor=#dae8fc;" parent="1" vertex="1">
          <mxGeometry x="240" y="159" width="40" height="40" as="geometry" />
        </mxCell>
        <mxCell id="6_L2TqiYfCNutB5mRZmD-3" value="8" style="rounded=0;whiteSpace=wrap;html=1;strokeColor=#6c8ebf;strokeWidth=1;fontFamily=Ubuntu;fontSize=16;fillColor=#dae8fc;" parent="1" vertex="1">
          <mxGeometry x="280" y="159" width="40" height="40" as="geometry" />
        </mxCell>
        <mxCell id="6_L2TqiYfCNutB5mRZmD-4" value="0" style="rounded=0;whiteSpace=wrap;html=1;strokeColor=#6c8ebf;strokeWidth=1;fontFamily=Ubuntu;fontSize=16;fillColor=#dae8fc;" parent="1" vertex="1">
          <mxGeometry x="320" y="159" width="40" height="40" as="geometry" />
        </mxCell>
        <mxCell id="6_L2TqiYfCNutB5mRZmD-5" value="0" style="rounded=0;whiteSpace=wrap;html=1;strokeColor=#b85450;strokeWidth=1;fontFamily=Ubuntu;fontSize=16;fillColor=#f8cecc;" parent="1" vertex="1">
          <mxGeometry x="360" y="159" width="40" height="40" as="geometry" />
        </mxCell>
        <mxCell id="FzRJKnLarG9-OYc6YbsZ-1" value="number % 10" style="text;html=1;align=center;verticalAlign=middle;whiteSpace=wrap;rounded=0;fontFamily=Ubuntu;fontSize=16;fontStyle=0;" parent="1" vertex="1">
          <mxGeometry x="290" y="120" width="130" height="30" as="geometry" />
        </mxCell>
      </root>
    </mxGraphModel>
  </diagram>
</mxfile>
